<mxfile host="app.diagrams.net" modified="2020-07-18T13:50:49.832Z" agent="5.0 (Windows NT 10.0; Win64; x64) AppleWebKit/537.36 (KHTML, like Gecko) Chrome/84.0.4147.89 Safari/537.36" etag="oor3IxQJPjLNdY8dhz8L" version="13.4.6" type="github">
  <diagram id="mznmLNT-LBeZ_tSl86b3" name="Page-1">
    <mxGraphModel dx="3422" dy="2617" grid="1" gridSize="10" guides="1" tooltips="1" connect="1" arrows="1" fold="1" page="1" pageScale="1" pageWidth="827" pageHeight="1169" math="0" shadow="0">
      <root>
        <mxCell id="0" />
        <mxCell id="1" parent="0" />
        <mxCell id="9orjj6MwfOjdTgFFEBvU-1" value="" style="html=1;verticalLabelPosition=bottom;align=center;labelBackgroundColor=#ffffff;verticalAlign=top;strokeWidth=2;strokeColor=#0080F0;shadow=0;dashed=0;shape=mxgraph.ios7.icons.wifi;pointerEvents=1;rotation=-30;" parent="1" vertex="1">
          <mxGeometry x="518.99" y="-72.7" width="81.68" height="52.7" as="geometry" />
        </mxCell>
        <mxCell id="9orjj6MwfOjdTgFFEBvU-4" value="&lt;font style=&quot;font-size: 25px&quot;&gt;价签数据信息&lt;/font&gt;" style="ellipse;shape=cloud;whiteSpace=wrap;html=1;fontFamily=Times New Roman;fontSize=18;fontStyle=1" parent="1" vertex="1">
          <mxGeometry x="242.5" y="270" width="240" height="140" as="geometry" />
        </mxCell>
        <mxCell id="9orjj6MwfOjdTgFFEBvU-5" value="&lt;b style=&quot;font-size: 26px&quot;&gt;门&lt;br&gt;店&lt;br&gt;服&lt;br&gt;务&lt;br&gt;器&lt;/b&gt;" style="rounded=0;whiteSpace=wrap;html=1;fontFamily=Times New Roman;fontSize=20;" parent="1" vertex="1">
          <mxGeometry x="90" y="260" width="82.5" height="220" as="geometry" />
        </mxCell>
        <mxCell id="9orjj6MwfOjdTgFFEBvU-6" value="" style="endArrow=none;dashed=1;html=1;dashPattern=1 3;strokeWidth=3;fontFamily=Times New Roman;fontSize=18;fontStyle=1" parent="1" edge="1">
          <mxGeometry width="50" height="50" relative="1" as="geometry">
            <mxPoint x="182.5" y="339.5" as="sourcePoint" />
            <mxPoint x="262.5" y="340" as="targetPoint" />
          </mxGeometry>
        </mxCell>
        <mxCell id="9orjj6MwfOjdTgFFEBvU-7" value="" style="endArrow=none;dashed=1;html=1;dashPattern=1 3;strokeWidth=3;fontFamily=Times New Roman;fontSize=18;fontStyle=1" parent="1" edge="1">
          <mxGeometry width="50" height="50" relative="1" as="geometry">
            <mxPoint x="482.5" y="339" as="sourcePoint" />
            <mxPoint x="562.5" y="339.17" as="targetPoint" />
          </mxGeometry>
        </mxCell>
        <mxCell id="9orjj6MwfOjdTgFFEBvU-8" value="" style="rounded=0;whiteSpace=wrap;html=1;fontFamily=Times New Roman;fontSize=18;fillColor=none;dashed=1;dashPattern=1 2;" parent="1" vertex="1">
          <mxGeometry x="570" y="-20" width="1260" height="710" as="geometry" />
        </mxCell>
        <mxCell id="9orjj6MwfOjdTgFFEBvU-9" value="&lt;b&gt;&lt;font style=&quot;font-size: 25px&quot;&gt;WiFi&lt;br&gt;模块&lt;/font&gt;&lt;/b&gt;" style="rounded=0;whiteSpace=wrap;html=1;fontFamily=Times New Roman;fontSize=18;" parent="1" vertex="1">
          <mxGeometry x="620" y="70" width="120" height="80" as="geometry" />
        </mxCell>
        <mxCell id="9orjj6MwfOjdTgFFEBvU-10" value="&lt;font style=&quot;font-size: 25px&quot;&gt;&lt;b&gt;串并&lt;br&gt;转换&lt;/b&gt;&lt;/font&gt;" style="rounded=0;whiteSpace=wrap;html=1;fontFamily=Times New Roman;fontSize=18;" parent="1" vertex="1">
          <mxGeometry x="810" y="70" width="120" height="80" as="geometry" />
        </mxCell>
        <mxCell id="9orjj6MwfOjdTgFFEBvU-12" value="" style="endArrow=classic;html=1;strokeWidth=3;fontFamily=Times New Roman;fontSize=20;exitX=1;exitY=0.5;exitDx=0;exitDy=0;entryX=0;entryY=0.5;entryDx=0;entryDy=0;" parent="1" source="9orjj6MwfOjdTgFFEBvU-9" target="9orjj6MwfOjdTgFFEBvU-10" edge="1">
          <mxGeometry width="50" height="50" relative="1" as="geometry">
            <mxPoint x="820" y="250" as="sourcePoint" />
            <mxPoint x="870" y="200" as="targetPoint" />
          </mxGeometry>
        </mxCell>
        <mxCell id="9orjj6MwfOjdTgFFEBvU-13" value="&lt;b&gt;&lt;font style=&quot;font-size: 25px&quot;&gt;4PPM&lt;br&gt;调制&lt;/font&gt;&lt;/b&gt;" style="rounded=0;whiteSpace=wrap;html=1;fontFamily=Times New Roman;fontSize=18;" parent="1" vertex="1">
          <mxGeometry x="990" y="70" width="120" height="80" as="geometry" />
        </mxCell>
        <mxCell id="9orjj6MwfOjdTgFFEBvU-14" value="&lt;b&gt;&lt;font style=&quot;font-size: 25px&quot;&gt;PWM&lt;br&gt;调制&lt;/font&gt;&lt;/b&gt;" style="rounded=0;whiteSpace=wrap;html=1;fontFamily=Times New Roman;fontSize=18;" parent="1" vertex="1">
          <mxGeometry x="1171" y="70" width="119" height="80" as="geometry" />
        </mxCell>
        <mxCell id="9orjj6MwfOjdTgFFEBvU-61" style="edgeStyle=none;rounded=0;orthogonalLoop=1;jettySize=auto;html=1;exitX=1;exitY=0.5;exitDx=0;exitDy=0;entryX=1;entryY=0.5;entryDx=0;entryDy=0;endArrow=classic;endFill=1;strokeColor=#000000;strokeWidth=3;fontFamily=Times New Roman;fontSize=20;" parent="1" source="9orjj6MwfOjdTgFFEBvU-15" target="9orjj6MwfOjdTgFFEBvU-59" edge="1">
          <mxGeometry relative="1" as="geometry" />
        </mxCell>
        <mxCell id="9orjj6MwfOjdTgFFEBvU-15" value="&lt;b&gt;&lt;font style=&quot;font-size: 25px&quot;&gt;驱动电路&lt;/font&gt;&lt;/b&gt;" style="rounded=0;whiteSpace=wrap;html=1;fontFamily=Times New Roman;fontSize=18;" parent="1" vertex="1">
          <mxGeometry x="1370" y="70" width="140" height="80" as="geometry" />
        </mxCell>
        <mxCell id="9orjj6MwfOjdTgFFEBvU-17" value="" style="endArrow=classic;html=1;strokeWidth=3;fontFamily=Times New Roman;fontSize=20;exitX=1;exitY=0.5;exitDx=0;exitDy=0;entryX=0;entryY=0.5;entryDx=0;entryDy=0;" parent="1" source="9orjj6MwfOjdTgFFEBvU-10" target="9orjj6MwfOjdTgFFEBvU-13" edge="1">
          <mxGeometry width="50" height="50" relative="1" as="geometry">
            <mxPoint x="1080" y="250" as="sourcePoint" />
            <mxPoint x="1130" y="200" as="targetPoint" />
          </mxGeometry>
        </mxCell>
        <mxCell id="9orjj6MwfOjdTgFFEBvU-18" value="" style="endArrow=classic;html=1;strokeWidth=3;fontFamily=Times New Roman;fontSize=20;exitX=1;exitY=0.5;exitDx=0;exitDy=0;" parent="1" source="9orjj6MwfOjdTgFFEBvU-14" target="9orjj6MwfOjdTgFFEBvU-15" edge="1">
          <mxGeometry width="50" height="50" relative="1" as="geometry">
            <mxPoint x="1080" y="250" as="sourcePoint" />
            <mxPoint x="1130" y="200" as="targetPoint" />
          </mxGeometry>
        </mxCell>
        <mxCell id="9orjj6MwfOjdTgFFEBvU-19" value="" style="endArrow=classic;html=1;strokeWidth=3;fontFamily=Times New Roman;fontSize=20;exitX=1;exitY=0.5;exitDx=0;exitDy=0;entryX=0;entryY=0.5;entryDx=0;entryDy=0;" parent="1" source="9orjj6MwfOjdTgFFEBvU-13" target="9orjj6MwfOjdTgFFEBvU-14" edge="1">
          <mxGeometry width="50" height="50" relative="1" as="geometry">
            <mxPoint x="1080" y="250" as="sourcePoint" />
            <mxPoint x="1130" y="200" as="targetPoint" />
          </mxGeometry>
        </mxCell>
        <mxCell id="9orjj6MwfOjdTgFFEBvU-20" value="&lt;b style=&quot;font-size: 25px&quot;&gt;&lt;br&gt;&lt;br&gt;&lt;br&gt;&lt;br&gt;发射控制器&lt;/b&gt;" style="rounded=1;whiteSpace=wrap;html=1;fontFamily=Times New Roman;fontSize=20;fillColor=none;strokeWidth=3;dashed=1;" parent="1" vertex="1">
          <mxGeometry x="780" y="40" width="550" height="190" as="geometry" />
        </mxCell>
        <mxCell id="9orjj6MwfOjdTgFFEBvU-28" value="" style="rounded=1;whiteSpace=wrap;html=1;fontFamily=Times New Roman;fontSize=20;dashed=1;fillColor=none;strokeWidth=4;dashPattern=1 4;" parent="1" vertex="1">
          <mxGeometry x="780" y="300" width="550" height="200" as="geometry" />
        </mxCell>
        <mxCell id="9orjj6MwfOjdTgFFEBvU-29" value="&lt;b&gt;&lt;font style=&quot;font-size: 25px&quot;&gt;接受控制器&lt;/font&gt;&lt;/b&gt;" style="text;html=1;strokeColor=none;fillColor=none;align=center;verticalAlign=middle;whiteSpace=wrap;rounded=0;dashed=1;fontFamily=Times New Roman;fontSize=20;" parent="1" vertex="1">
          <mxGeometry x="990" y="325" width="132.5" height="20" as="geometry" />
        </mxCell>
        <mxCell id="9orjj6MwfOjdTgFFEBvU-47" style="edgeStyle=orthogonalEdgeStyle;rounded=0;orthogonalLoop=1;jettySize=auto;html=1;exitX=0.5;exitY=1;exitDx=0;exitDy=0;strokeWidth=3;fontFamily=Times New Roman;fontSize=20;" parent="1" source="9orjj6MwfOjdTgFFEBvU-38" target="9orjj6MwfOjdTgFFEBvU-46" edge="1">
          <mxGeometry relative="1" as="geometry" />
        </mxCell>
        <mxCell id="9orjj6MwfOjdTgFFEBvU-38" value="&lt;b&gt;&lt;font style=&quot;font-size: 25px&quot;&gt;存储&lt;br&gt;译码&lt;/font&gt;&lt;/b&gt;" style="rounded=0;whiteSpace=wrap;html=1;fontFamily=Times New Roman;fontSize=18;" parent="1" vertex="1">
          <mxGeometry x="810" y="370" width="120" height="80" as="geometry" />
        </mxCell>
        <mxCell id="9orjj6MwfOjdTgFFEBvU-39" value="&lt;b style=&quot;font-size: 25px&quot;&gt;并串&lt;br&gt;转换&lt;/b&gt;" style="rounded=0;whiteSpace=wrap;html=1;fontFamily=Times New Roman;fontSize=18;" parent="1" vertex="1">
          <mxGeometry x="990" y="370" width="120" height="80" as="geometry" />
        </mxCell>
        <mxCell id="9orjj6MwfOjdTgFFEBvU-40" value="&lt;b style=&quot;font-size: 25px&quot;&gt;4PPM&lt;br&gt;解调&lt;/b&gt;" style="rounded=0;whiteSpace=wrap;html=1;fontFamily=Times New Roman;fontSize=18;" parent="1" vertex="1">
          <mxGeometry x="1171" y="370" width="119" height="80" as="geometry" />
        </mxCell>
        <mxCell id="9orjj6MwfOjdTgFFEBvU-62" style="edgeStyle=none;rounded=0;orthogonalLoop=1;jettySize=auto;html=1;exitX=1;exitY=0.5;exitDx=0;exitDy=0;entryX=0;entryY=0.5;entryDx=0;entryDy=0;endArrow=none;endFill=0;strokeColor=#000000;strokeWidth=3;fontFamily=Times New Roman;fontSize=20;startArrow=classic;startFill=1;" parent="1" source="9orjj6MwfOjdTgFFEBvU-41" target="9orjj6MwfOjdTgFFEBvU-60" edge="1">
          <mxGeometry relative="1" as="geometry" />
        </mxCell>
        <mxCell id="9orjj6MwfOjdTgFFEBvU-41" value="&lt;b&gt;&lt;font style=&quot;font-size: 25px&quot;&gt;放大&lt;br&gt;整流电路&lt;/font&gt;&lt;/b&gt;" style="rounded=0;whiteSpace=wrap;html=1;fontFamily=Times New Roman;fontSize=18;" parent="1" vertex="1">
          <mxGeometry x="1370" y="370" width="140" height="80" as="geometry" />
        </mxCell>
        <mxCell id="9orjj6MwfOjdTgFFEBvU-42" value="" style="endArrow=none;html=1;strokeWidth=3;fontFamily=Times New Roman;fontSize=20;exitX=1;exitY=0.5;exitDx=0;exitDy=0;entryX=0;entryY=0.5;entryDx=0;entryDy=0;startArrow=classic;startFill=1;endFill=0;" parent="1" source="9orjj6MwfOjdTgFFEBvU-38" target="9orjj6MwfOjdTgFFEBvU-39" edge="1">
          <mxGeometry width="50" height="50" relative="1" as="geometry">
            <mxPoint x="1080" y="550" as="sourcePoint" />
            <mxPoint x="1130" y="500" as="targetPoint" />
          </mxGeometry>
        </mxCell>
        <mxCell id="9orjj6MwfOjdTgFFEBvU-43" value="" style="endArrow=none;html=1;strokeWidth=3;fontFamily=Times New Roman;fontSize=20;exitX=1;exitY=0.5;exitDx=0;exitDy=0;startArrow=classic;startFill=1;endFill=0;" parent="1" source="9orjj6MwfOjdTgFFEBvU-40" target="9orjj6MwfOjdTgFFEBvU-41" edge="1">
          <mxGeometry width="50" height="50" relative="1" as="geometry">
            <mxPoint x="1080" y="550" as="sourcePoint" />
            <mxPoint x="1130" y="500" as="targetPoint" />
          </mxGeometry>
        </mxCell>
        <mxCell id="9orjj6MwfOjdTgFFEBvU-44" value="" style="endArrow=none;html=1;strokeWidth=3;fontFamily=Times New Roman;fontSize=20;exitX=1;exitY=0.5;exitDx=0;exitDy=0;entryX=0;entryY=0.5;entryDx=0;entryDy=0;startArrow=classic;startFill=1;endFill=0;" parent="1" source="9orjj6MwfOjdTgFFEBvU-39" target="9orjj6MwfOjdTgFFEBvU-40" edge="1">
          <mxGeometry width="50" height="50" relative="1" as="geometry">
            <mxPoint x="1080" y="550" as="sourcePoint" />
            <mxPoint x="1130" y="500" as="targetPoint" />
          </mxGeometry>
        </mxCell>
        <mxCell id="9orjj6MwfOjdTgFFEBvU-57" style="rounded=0;orthogonalLoop=1;jettySize=auto;html=1;entryX=0;entryY=0.5;entryDx=0;entryDy=0;entryPerimeter=0;strokeColor=#000000;strokeWidth=3;fontFamily=Times New Roman;fontSize=20;endArrow=none;endFill=0;" parent="1" source="9orjj6MwfOjdTgFFEBvU-46" target="9orjj6MwfOjdTgFFEBvU-52" edge="1">
          <mxGeometry relative="1" as="geometry" />
        </mxCell>
        <mxCell id="9orjj6MwfOjdTgFFEBvU-46" value="&lt;span style=&quot;font-size: 25px&quot;&gt;&lt;b&gt;扩展电路&lt;/b&gt;&lt;/span&gt;" style="rounded=0;whiteSpace=wrap;html=1;fontFamily=Times New Roman;fontSize=18;" parent="1" vertex="1">
          <mxGeometry x="810" y="560" width="120" height="80" as="geometry" />
        </mxCell>
        <mxCell id="9orjj6MwfOjdTgFFEBvU-48" value="&lt;b&gt;&lt;font style=&quot;font-size: 25px&quot;&gt;价标签 1&lt;/font&gt;&lt;/b&gt;" style="rounded=0;whiteSpace=wrap;html=1;fontFamily=Times New Roman;fontSize=18;" parent="1" vertex="1">
          <mxGeometry x="1101" y="530" width="139" height="40" as="geometry" />
        </mxCell>
        <mxCell id="9orjj6MwfOjdTgFFEBvU-49" value="&lt;b&gt;&lt;font style=&quot;font-size: 25px&quot;&gt;价标签 n&lt;/font&gt;&lt;/b&gt;" style="rounded=0;whiteSpace=wrap;html=1;fontFamily=Times New Roman;fontSize=18;" parent="1" vertex="1">
          <mxGeometry x="1101" y="630" width="139" height="40" as="geometry" />
        </mxCell>
        <mxCell id="9orjj6MwfOjdTgFFEBvU-50" value="" style="endArrow=none;dashed=1;html=1;strokeWidth=2;fontFamily=Times New Roman;fontSize=20;exitX=0.5;exitY=1;exitDx=0;exitDy=0;entryX=0.5;entryY=0;entryDx=0;entryDy=0;" parent="1" source="9orjj6MwfOjdTgFFEBvU-48" target="9orjj6MwfOjdTgFFEBvU-49" edge="1">
          <mxGeometry width="50" height="50" relative="1" as="geometry">
            <mxPoint x="970" y="320" as="sourcePoint" />
            <mxPoint x="1040" y="270" as="targetPoint" />
          </mxGeometry>
        </mxCell>
        <mxCell id="9orjj6MwfOjdTgFFEBvU-55" style="edgeStyle=none;rounded=0;orthogonalLoop=1;jettySize=auto;html=1;exitX=1;exitY=0;exitDx=0;exitDy=0;exitPerimeter=0;entryX=0;entryY=0.5;entryDx=0;entryDy=0;strokeColor=#000000;strokeWidth=3;fontFamily=Times New Roman;fontSize=20;" parent="1" source="9orjj6MwfOjdTgFFEBvU-52" target="9orjj6MwfOjdTgFFEBvU-48" edge="1">
          <mxGeometry relative="1" as="geometry" />
        </mxCell>
        <mxCell id="9orjj6MwfOjdTgFFEBvU-56" style="edgeStyle=none;rounded=0;orthogonalLoop=1;jettySize=auto;html=1;exitX=1;exitY=1;exitDx=0;exitDy=0;exitPerimeter=0;entryX=0;entryY=0.5;entryDx=0;entryDy=0;strokeColor=#000000;strokeWidth=3;fontFamily=Times New Roman;fontSize=20;" parent="1" source="9orjj6MwfOjdTgFFEBvU-52" target="9orjj6MwfOjdTgFFEBvU-49" edge="1">
          <mxGeometry relative="1" as="geometry" />
        </mxCell>
        <mxCell id="9orjj6MwfOjdTgFFEBvU-52" value="" style="strokeWidth=3;html=1;shape=mxgraph.flowchart.annotation_2;align=left;labelPosition=right;pointerEvents=1;fillColor=none;fontFamily=Times New Roman;fontSize=20;" parent="1" vertex="1">
          <mxGeometry x="990" y="550" width="50" height="100" as="geometry" />
        </mxCell>
        <mxCell id="9orjj6MwfOjdTgFFEBvU-58" value="" style="fontColor=#0066CC;verticalAlign=top;verticalLabelPosition=bottom;labelPosition=center;align=center;html=1;outlineConnect=0;fillColor=#CCCCCC;strokeColor=#6881B3;gradientColor=none;gradientDirection=north;strokeWidth=2;shape=mxgraph.networks.radio_tower;" parent="1" vertex="1">
          <mxGeometry x="103.75" y="160" width="55" height="100" as="geometry" />
        </mxCell>
        <mxCell id="9orjj6MwfOjdTgFFEBvU-59" value="" style="shape=image;html=1;verticalAlign=top;verticalLabelPosition=bottom;labelBackgroundColor=#ffffff;imageAspect=0;aspect=fixed;image=https://cdn3.iconfinder.com/data/icons/android-ui-5/10/16-128.png;strokeWidth=2;fillColor=none;fontFamily=Times New Roman;fontSize=20;rotation=-180;" parent="1" vertex="1">
          <mxGeometry x="1620" y="29" width="162" height="162" as="geometry" />
        </mxCell>
        <mxCell id="9orjj6MwfOjdTgFFEBvU-60" value="" style="shape=image;html=1;verticalAlign=top;verticalLabelPosition=bottom;labelBackgroundColor=#ffffff;imageAspect=0;aspect=fixed;image=https://cdn3.iconfinder.com/data/icons/android-ui-5/10/16-128.png;strokeWidth=2;fillColor=none;fontFamily=Times New Roman;fontSize=20;" parent="1" vertex="1">
          <mxGeometry x="1619.5" y="328.75" width="162.5" height="162.5" as="geometry" />
        </mxCell>
        <mxCell id="9orjj6MwfOjdTgFFEBvU-63" value="&lt;font style=&quot;font-size: 25px&quot;&gt;&lt;b&gt;光电二极管&lt;/b&gt;&lt;/font&gt;" style="text;html=1;strokeColor=none;fillColor=none;align=center;verticalAlign=middle;whiteSpace=wrap;rounded=0;fontFamily=Times New Roman;fontSize=20;" parent="1" vertex="1">
          <mxGeometry x="1620.75" y="500" width="160" height="20" as="geometry" />
        </mxCell>
        <mxCell id="9orjj6MwfOjdTgFFEBvU-64" value="&lt;font size=&quot;1&quot;&gt;&lt;b style=&quot;font-size: 28px&quot;&gt;LED&lt;/b&gt;&lt;/font&gt;" style="text;html=1;strokeColor=none;fillColor=none;align=center;verticalAlign=middle;whiteSpace=wrap;rounded=0;fontFamily=Times New Roman;fontSize=20;" parent="1" vertex="1">
          <mxGeometry x="1622" y="9" width="160" height="20" as="geometry" />
        </mxCell>
        <mxCell id="9orjj6MwfOjdTgFFEBvU-66" value="" style="rounded=0;whiteSpace=wrap;html=1;strokeWidth=3;fillColor=none;fontFamily=Times New Roman;fontSize=20;" parent="1" vertex="1">
          <mxGeometry y="-140" width="1950" height="940" as="geometry" />
        </mxCell>
        <mxCell id="oYpV4RygmA6f6b69uz8--1" value="&lt;font style=&quot;font-size: 25px&quot;&gt;&lt;b&gt;第n个货柜&lt;/b&gt;&lt;/font&gt;" style="text;html=1;strokeColor=none;fillColor=none;align=center;verticalAlign=middle;whiteSpace=wrap;rounded=0;dashed=1;" vertex="1" parent="1">
          <mxGeometry x="1161" y="-80" width="159" height="40" as="geometry" />
        </mxCell>
        <mxCell id="oYpV4RygmA6f6b69uz8--2" value="" style="rounded=0;whiteSpace=wrap;html=1;dashed=1;strokeWidth=4;fillColor=none;" vertex="1" parent="1">
          <mxGeometry x="-280" y="-400" width="2490" height="1440" as="geometry" />
        </mxCell>
      </root>
    </mxGraphModel>
  </diagram>
</mxfile>
